<mxfile host="app.diagrams.net" modified="2024-01-04T13:22:40.196Z" agent="Mozilla/5.0 (Windows NT 10.0; Win64; x64; rv:121.0) Gecko/20100101 Firefox/121.0" etag="2zMXEzgfWrj-2ihVwIhr" version="22.1.16" type="device">
  <diagram name="Login" id="03018318-947c-dd8e-b7a3-06fadd420f32">
    <mxGraphModel dx="1444" dy="753" grid="1" gridSize="10" guides="1" tooltips="1" connect="1" arrows="1" fold="1" page="1" pageScale="1" pageWidth="1100" pageHeight="850" background="#ffffff" math="0" shadow="0">
      <root>
        <mxCell id="0" />
        <mxCell id="1" parent="0" />
        <mxCell id="hJnvCMg9dFZWZAaPUIYZ-1" value="" style="whiteSpace=wrap;html=1;aspect=fixed;fillColor=#B4BEC9;strokeColor=#666666;fontColor=#333333;fillStyle=solid;" vertex="1" parent="1">
          <mxGeometry x="160" y="40" width="760" height="760" as="geometry" />
        </mxCell>
        <mxCell id="hJnvCMg9dFZWZAaPUIYZ-3" value="" style="rounded=1;whiteSpace=wrap;html=1;" vertex="1" parent="1">
          <mxGeometry x="340" y="280" width="400" height="350" as="geometry" />
        </mxCell>
        <mxCell id="hJnvCMg9dFZWZAaPUIYZ-4" value="" style="rounded=1;whiteSpace=wrap;html=1;fillColor=#159A9C;strokeColor=#36393d;" vertex="1" parent="1">
          <mxGeometry x="410" y="240" width="270" height="80" as="geometry" />
        </mxCell>
        <mxCell id="hJnvCMg9dFZWZAaPUIYZ-5" value="LOGIN MIEMBRO" style="text;html=1;align=center;verticalAlign=middle;whiteSpace=wrap;rounded=0;fontSize=19;fontColor=#FFFFFF;" vertex="1" parent="1">
          <mxGeometry x="460" y="265" width="170" height="30" as="geometry" />
        </mxCell>
        <mxCell id="hJnvCMg9dFZWZAaPUIYZ-7" value="" style="rounded=1;whiteSpace=wrap;html=1;fillColor=#159A9C;strokeColor=#36393d;" vertex="1" parent="1">
          <mxGeometry x="370" y="530" width="165" height="70" as="geometry" />
        </mxCell>
        <mxCell id="hJnvCMg9dFZWZAaPUIYZ-8" value="LOGIN" style="text;html=1;align=center;verticalAlign=middle;whiteSpace=wrap;rounded=0;fontSize=19;fontColor=#FFFFFF;" vertex="1" parent="1">
          <mxGeometry x="367.5" y="550" width="170" height="30" as="geometry" />
        </mxCell>
        <mxCell id="hJnvCMg9dFZWZAaPUIYZ-9" style="edgeStyle=orthogonalEdgeStyle;rounded=0;orthogonalLoop=1;jettySize=auto;html=1;exitX=0.5;exitY=1;exitDx=0;exitDy=0;" edge="1" parent="1" source="hJnvCMg9dFZWZAaPUIYZ-8" target="hJnvCMg9dFZWZAaPUIYZ-8">
          <mxGeometry relative="1" as="geometry" />
        </mxCell>
        <mxCell id="hJnvCMg9dFZWZAaPUIYZ-10" value="" style="rounded=1;whiteSpace=wrap;html=1;fontColor=#000000;fillColor=#E6E6E6;" vertex="1" parent="1">
          <mxGeometry x="390" y="360" width="280" height="55" as="geometry" />
        </mxCell>
        <mxCell id="hJnvCMg9dFZWZAaPUIYZ-11" value="icon" style="shape=umlActor;verticalLabelPosition=bottom;verticalAlign=top;html=1;outlineConnect=0;" vertex="1" parent="1">
          <mxGeometry x="400" y="360" width="30" height="30" as="geometry" />
        </mxCell>
        <mxCell id="hJnvCMg9dFZWZAaPUIYZ-12" value="Usuario" style="text;html=1;strokeColor=none;fillColor=none;align=left;verticalAlign=middle;whiteSpace=wrap;rounded=0;fontColor=#999999;" vertex="1" parent="1">
          <mxGeometry x="457.5" y="372.5" width="162.5" height="30" as="geometry" />
        </mxCell>
        <mxCell id="hJnvCMg9dFZWZAaPUIYZ-13" value="" style="rounded=1;whiteSpace=wrap;html=1;fontColor=#000000;fillColor=#E6E6E6;" vertex="1" parent="1">
          <mxGeometry x="390" y="450" width="280" height="55" as="geometry" />
        </mxCell>
        <mxCell id="hJnvCMg9dFZWZAaPUIYZ-14" value="icon" style="shape=umlActor;verticalLabelPosition=bottom;verticalAlign=top;html=1;outlineConnect=0;" vertex="1" parent="1">
          <mxGeometry x="400" y="450" width="30" height="30" as="geometry" />
        </mxCell>
        <mxCell id="hJnvCMg9dFZWZAaPUIYZ-15" value="ContraseÃ±a" style="text;html=1;strokeColor=none;fillColor=none;align=left;verticalAlign=middle;whiteSpace=wrap;rounded=0;fontColor=#999999;" vertex="1" parent="1">
          <mxGeometry x="457.5" y="462.5" width="162.5" height="30" as="geometry" />
        </mxCell>
        <mxCell id="hJnvCMg9dFZWZAaPUIYZ-16" value="" style="rounded=1;whiteSpace=wrap;html=1;fillColor=#159A9C;strokeColor=#36393d;" vertex="1" parent="1">
          <mxGeometry x="552.5" y="530" width="165" height="70" as="geometry" />
        </mxCell>
        <mxCell id="hJnvCMg9dFZWZAaPUIYZ-17" value="REGISTRO" style="text;html=1;align=center;verticalAlign=middle;whiteSpace=wrap;rounded=0;fontSize=19;fontColor=#FFFFFF;" vertex="1" parent="1">
          <mxGeometry x="550" y="550" width="170" height="30" as="geometry" />
        </mxCell>
      </root>
    </mxGraphModel>
  </diagram>
</mxfile>
